<?xml version="1.0" encoding="utf-8"?>
<!-- Generator: Adobe Illustrator 18.1.1, SVG Export Plug-In . SVG Version: 6.00 Build 0)  -->
<svg version="1.1" id="Layer_1" xmlns="http://www.w3.org/2000/svg" xmlns:xlink="http://www.w3.org/1999/xlink" x="0px" y="0px"
	 viewBox="42 95 598 272" enable-background="new 42 95 598 272" xml:space="preserve">
<rect x="281.2" y="142" fill="#30C22C" width="33" height="3.2"/>
<g>
	<polygon fill="#30C22C" points="316.5,231.6 436.5,231.6 436.5,229.6 316.5,229.4 	"/>
	<polygon fill="#30C22C" points="182.5,231.6 302.5,231.6 302.5,229.6 182.5,229.4 	"/>
	<polygon fill="#30C22C" points="308.5,104 308.5,220 310.5,220 310.7,104 	"/>
	<polygon fill="#30C22C" points="308.5,240 308.5,360 310.5,360 310.7,240 	"/>
	<path fill="#30C22C" d="M310.1,102c-71,0-128.4,57.4-128.4,128.4s57.4,128.4,128.4,128.4s128.4-57.4,128.4-128.4
		S381.1,102,310.1,102z M310.3,354.6c-68.6,0-124.2-55.6-124.2-124.4s55.6-124.4,124.2-124.4s124.2,55.6,124.2,124.4
		S378.9,354.6,310.3,354.6z"/>
	<path fill="#32C62A" d="M252.5,175v26.4c0,0,0.4,1.2,2.2,1c1.6,0,1.8-1,1.8-1V178c0-1.8,0.4,0,0.4,0h20.4c0,0,0.6-1.2,0.8-1.4
		c0.2-0.2,0.4-1.2,0.4-1.8c0,0,0.2-2-1.2-2c0,0-8.6,0-9.4-0.2c0,0-14.6-0.2-14.8-0.2c0,0-0.6,0-0.6,0.6L252.5,175L252.5,175z"/>
	<path fill="#32C62A" d="M252.5,284.8v-26.4c0,0,0.4-1.2,2.2-1c1.6,0,1.8,1,1.8,1v23.4c0,1.8,0.4,2.2,0.4,2.2h20.4
		c0,0,0.6,0,0.8,0.2c0.2,0.2,0.4,0.6,0.4,1.2c0,0,0.2,1.6-1.2,1.6c0,0-8.6,0-9.4,0c0,0-14.6,0-14.8,0c0,0-0.6,0-0.6-0.6L252.5,284.8
		L252.5,284.8z"/>
	<path fill="#FFFFFF" d="M125.3,209.8l11.2-20.6c0,0-26-11.2-47-3.8c0,0-24.4,8-23,32.4c0,0,0,18.8,22,22.4c0,0,20,2.2,18,10.8
		c0,0-1.2,6.8-14.4,5c0,0-12.8-2.4-20.2-8l-12,21.6c0,0,20.6,16.8,52.8,9.4c0,0,30.2-7,26.4-37c0,0-2.2-17-21.6-21.2
		c0,0-1.4-1-6.8-1.8c-6.2-0.8-14-4-11-11C99.7,208.2,105.9,199.8,125.3,209.8z"/>
	<path fill="#FFFFFF" d="M230.5,216.4v-27.8c0,0-21.8-11.8-47,1.2c0,0-23.4,9.6-25.6,40.6c0,0-2,33.8,32.2,46.8
		c0,0,22.4,8.6,40.4-1.8V248c0,0-8.4,7.8-21.6,5.4c0,0-12-1.8-16.8-14.4c0,0-5-19,14-27.4C206.1,211.4,216.5,207,230.5,216.4z"/>
	<path fill="#FFFFFF" d="M362.1,221.4c-1.6-14.2-16.6-26.8-16.6-26.8c-8-8-25.4-11-25.4-11c-5.2-0.2-16,0-16,0
		c-11.8-0.8-24.4,6-24.4,6c-29.4,16.2-25.4,45.8-25.4,45.8c1,17.8,13.2,29.4,13.2,29.4c8,9.2,21.6,13.4,21.6,13.4
		c11.2,2.8,20.4,2.2,20.4,2.2c13.4-0.2,20.8-3.4,20.8-3.4c15.4-4.2,25-18.8,25-18.8C366.3,244.2,362.1,221.4,362.1,221.4z
		 M327.7,240c0,0-3,9.8-15.8,12.8c0,0-11.8,1-18.4-6c0,0-5.4-6-6-14c0,0,0-15,13.6-20.6c0,0,12.6-4.4,21.8,4.6
		C322.9,216.6,333.5,225.2,327.7,240z"/>
	<path fill="#FFFFFF" d="M498.5,215.6c-3.4-13-14.2-21.8-14.2-21.8c-7.2-6.4-20.6-9.6-20.6-9.6c-9.8-1.8-19.4,0.8-19.4,0.8
		c-10.4,2.6-16,10.6-16,10.6c-0.8,2-1.4,1.8-1.4,1.8c-0.4-0.2-0.4-1.2-0.4-1.2V186h-30v138h32v-53.8c0-1.6,0.8-0.4,0.8-0.4
		c6.2,7.4,17.6,10,17.6,10c25.2,4.8,38.2-10,38.2-10c15.2-13,15.8-31.6,15.8-31.6C501.9,225.2,498.5,215.6,498.5,215.6z
		 M451.7,252.8c-1.4,0.4-6.2,0.8-8.8,0.2c-6.2-1.2-17.2-5.6-17.4-21.8c0,0,0-18.4,19.2-20.6c1-0.2,4.4-0.2,6.4,0.2
		c5,1.2,14.6,5.2,17,18.6C467.9,229.6,470.7,248.4,451.7,252.8z"/>
	<path fill="#FFFFFF" d="M556.9,238h65.2c0.4-10-1.2-18-1.2-18c-4.2-20.8-18.2-29.2-18.2-29.2c-9.2-7.8-25.8-8.8-25.8-8.8h-11.8
		c-16,2-23.8,8-23.8,8c-17.8,12.2-19,31.8-19,31.8s-1.6,18.6,2.8,27.8c0,0,9.2,27.6,42.6,29.2c26.6,1.2,38.4-9.4,38.4-9.4
		c11.4-9.4,14-21.6,14-21.6h-31c-2,3.8-6.2,6.4-6.2,6.4c-10.8,5.6-22.4-1.4-22.4-1.4c-7-5.6-6-14.4-6-14.4
		C554.7,237,556.9,238,556.9,238z M555.5,213.8c0,0,2.8-8.6,12.8-11.6c0,0,4.2-1.4,10.4,0c0,0,9.2,1.6,13,11.4c0,0,1.8,4.4-1.2,4.4
		h-33.6C556.9,218,554.1,218,555.5,213.8z"/>
	<rect x="250.7" y="219.4" fill="#30C22C" width="2.2" height="22.6"/>
	<rect x="292.5" y="223" fill="#30C22C" width="1.6" height="15.6"/>
	<rect x="220.7" y="214" fill="#30C22C" width="3.2" height="33"/>
	<rect x="363.7" y="219.4" fill="#30C22C" width="2.2" height="22.6"/>
	<rect x="323.5" y="223" fill="#30C22C" width="1.6" height="15.6"/>
	<rect x="298.7" y="171.6" fill="#30C22C" width="22.6" height="2.2"/>
	<rect x="302.1" y="215.8" fill="#30C22C" width="15.6" height="1.6"/>
	<rect x="298.3" y="285.6" fill="#30C22C" width="22.6" height="2.2"/>
	<rect x="302.1" y="246.6" fill="#30C22C" width="15.6" height="1.6"/>
	<rect x="293.1" y="319.8" fill="#30C22C" width="33" height="3.2"/>
	<path fill="#32C62A" d="M366.5,175v26.4c0,0-0.4,1.2-2.2,1c-1.6,0-1.8-1-1.8-1V178c0-1.8-0.6,0-0.6,0h-20.4c0,0-0.6-1.2-0.8-1.4
		c-0.2-0.2-0.4-1.2-0.4-1.8c0,0-0.2-2,1.2-2c0,0,8.6,0,9.4-0.2l14.8-0.2c0,0,0.6,0,0.6,0.6v2H366.5z"/>
	<path fill="#32C62A" d="M366.5,284.8v-26.4c0,0-0.4-1.2-2.2-1c-1.6,0-1.8,1-1.8,1v23.4c0,1.8-0.6,2.2-0.6,2.2h-20.4
		c0,0-0.6,0-0.8,0.2c-0.2,0.2-0.4,0.6-0.4,1.2c0,0-0.2,1.6,1.2,1.6c0,0,8.6,0,9.4,0h14.8c0,0,0.6,0,0.6-0.6v-1.6H366.5z"/>
</g>
</svg>
